<?xml version="1.0" encoding="utf-8"?><!-- Uploaded to: SVG Repo, www.svgrepo.com, Generator: SVG Repo Mixer Tools -->
<svg width="800px" height="800px" viewBox="0 0 24 24" id="coin" xmlns="http://www.w3.org/2000/svg" class="icon multi-color"><title style="stroke-width: 2;">coin</title><path id="tertiary-fill" d="M21,12A9,9,0,0,1,3,12a9.29,9.29,0,0,1,.12-1.5,9,9,0,0,0,17.76,0A9.29,9.29,0,0,1,21,12Z" style="fill: #b7b7b7; stroke-width: 2;"></path><circle id="primary-stroke" cx="12" cy="12" r="9" style="fill: none; stroke: rgb(0, 0, 0); stroke-linecap: round; stroke-linejoin: round; stroke-width: 2;"></circle><path id="secondary-stroke" d="M14,15.12A2.82,2.82,0,0,1,12,16c-1.77,0-3.2-1.79-3.2-4S10.23,8,12,8a2.89,2.89,0,0,1,2.12,1M8,12h2" style="fill: none; stroke: rgb(44, 169, 188); stroke-linecap: round; stroke-linejoin: round; stroke-width: 2;"></path></svg>